# xmcd
#
# Track frame offsets: 
#        182
#        11742
#        23822
#        35755
#        46480
#        57487
#        68812
#        81377
#        95737
#        107592
#        118760
#        130805
#        143505
#        156532
#        171612
#        181035
#        195670
#        215300
#        227507
#        243267
#
# Disc length: 3369 seconds
#
# Revision: 6
# Processed by: cddbd v1.5.2PL0 Copyright (c) Steve Scherf et al.
# Submitted via: ExactAudioCopyFreeDBPlugin 1.0
#
DISCID=1d0d2714
DTITLE=Otis Redding - The Otis Redding Story
DYEAR=1987
DGENRE=Soul
TTITLE0=These Arms of Mine
TTITLE1=That's What My Heart Needs
TTITLE2=Mary's Little Lamb
TTITLE3=Pain in My Heart
TTITLE4=Something is Worrying Me
TTITLE5=Security
TTITLE6=Come to Me
TTITLE7=Your One and Only Man
TTITLE8=Chained and Bound
TTITLE9=That's How Strong My Love Is
TTITLE10=Mr. Pitiful
TTITLE11=Keep Your Arms Around Me
TTITLE12=For Your Precious Love
TTITLE13=Woman, a Lover, a Friend
TTITLE14=Home in Your Heart
TTITLE15=I've Been Loving You Too Long
TTITLE16=A Change is Gonna Come
TTITLE17=Shake
TTITLE18=Rock Me Baby
TTITLE19=Respect
EXTD=YEAR: 1987
EXTT0=
EXTT1=
EXTT2=
EXTT3=
EXTT4=
EXTT5=
EXTT6=
EXTT7=
EXTT8=
EXTT9=
EXTT10=
EXTT11=
EXTT12=
EXTT13=
EXTT14=
EXTT15=
EXTT16=
EXTT17=
EXTT18=
EXTT19=
PLAYORDER=
